<?xml version="1.0" encoding="UTF-8"?>
<!DOCTYPE svg PUBLIC "-//W3C//DTD SVG 1.1//EN" "http://www.w3.org/Graphics/SVG/1.1/DTD/svg11.dtd">
<!-- Creator: CorelDRAW X6 -->
<svg xmlns="http://www.w3.org/2000/svg" xml:space="preserve" width="55.5624mm" height="55.5624mm" version="1.1" style="shape-rendering:geometricPrecision; text-rendering:geometricPrecision; image-rendering:optimizeQuality; fill-rule:evenodd; clip-rule:evenodd"
viewBox="0 0 5556 5556"
 xmlns:xlink="http://www.w3.org/1999/xlink">
 <defs>
  <style type="text/css">
   <![CDATA[
    .str1 {stroke:#53BF6B;stroke-width:20}
    .str0 {stroke:white;stroke-width:20}
    .fil1 {fill:#53BF6B}
    .fil0 {fill:white}
    .fil2 {fill:#19763E;fill-rule:nonzero}
   ]]>
  </style>
 </defs>
 <g id="Layer_x0020_1">
  <metadata id="CorelCorpID_0Corel-Layer"/>
  <circle class="fil0 str0" cx="2818" cy="2765" r="2646"/>
  <circle class="fil1 str1" cx="2818" cy="2765" r="2381"/>
  <path class="fil2" d="M4023 1320c0,125 -189,609 -566,1456 -377,846 -565,1333 -565,1460l-291 0c0,-115 -178,-598 -534,-1448 -356,-851 -534,-1340 -534,-1468l426 0c0,117 136,531 407,1244 272,713 407,1121 407,1224l23 0c0,-116 137,-523 412,-1219 274,-696 412,-1113 412,-1249l403 0z"/>
  <path class="fil2" d="M3353 1413c0,58 -87,281 -261,672 -174,391 -261,615 -261,674l-134 0c0,-53 -82,-276 -247,-669 -164,-393 -247,-618 -247,-677l197 0c0,54 63,245 188,574 126,329 188,517 188,565l11 0c0,-54 63,-241 190,-563 127,-321 190,-514 190,-576l186 0z"/>
 </g>
</svg>
